<?xml version="1.0" encoding="UTF-8" standalone="no"?>
<!-- Created with Inkscape (http://www.inkscape.org/) -->

<svg
   width="143.436mm"
   height="17.378969mm"
   viewBox="0 0 143.43601 17.378969"
   version="1.1"
   id="svg5"
   inkscape:version="1.1.2 (0a00cf5339, 2022-02-04)"
   sodipodi:docname="logo.svg"
   xmlns:inkscape="http://www.inkscape.org/namespaces/inkscape"
   xmlns:sodipodi="http://sodipodi.sourceforge.net/DTD/sodipodi-0.dtd"
   xmlns="http://www.w3.org/2000/svg"
   xmlns:svg="http://www.w3.org/2000/svg">
  <sodipodi:namedview
     id="namedview7"
     pagecolor="#ffffff"
     bordercolor="#666666"
     borderopacity="1.0"
     inkscape:pageshadow="2"
     inkscape:pageopacity="0.0"
     inkscape:pagecheckerboard="0"
     inkscape:document-units="mm"
     showgrid="false"
     inkscape:zoom="1.1653671"
     inkscape:cx="247.99052"
     inkscape:cy="-109.40758"
     inkscape:window-width="2486"
     inkscape:window-height="1376"
     inkscape:window-x="74"
     inkscape:window-y="27"
     inkscape:window-maximized="1"
     inkscape:current-layer="layer1" />
  <defs
     id="defs2" />
  <g
     inkscape:label="Layer 1"
     inkscape:groupmode="layer"
     id="layer1"
     transform="translate(-41.14636,-309.04362)">
    <path
       d="m 41.14636,326.42259 2.21811,-16.69216 H 50.943 l -0.29046,2.23092 h -5.04356 l -0.60734,4.46188 h 3.96091 l -0.29047,2.23092 h -3.9609 l -1.02984,7.76844 z"
       style="font-style:italic;font-size:28.2176px;line-height:1.25;font-family:Dhurjati;-inkscape-font-specification:'Dhurjati Italic';letter-spacing:0px;word-spacing:0px;stroke-width:0.264583"
       id="path17898-6" />
    <path
       d="m 52.658313,326.42259 h -2.53498 l 1.66358,-12.46932 h 2.53498 l -0.13203,0.9561 q 0.15844,-0.19919 0.36969,-0.35853 0.21125,-0.19919 0.47531,-0.31872 0.26406,-0.11951 0.55452,-0.19919 0.31688,-0.0797 0.63375,-0.0797 h 0.4489 l -0.31687,2.23092 h -0.66015 q -0.34328,0 -0.66015,0.11952 -0.31687,0.11951 -0.58094,0.35854 -0.23765,0.19919 -0.42249,0.5179 -0.18485,0.3187 -0.23766,0.71708 z"
       style="font-style:italic;font-size:28.2176px;line-height:1.25;font-family:Dhurjati;-inkscape-font-specification:'Dhurjati Italic';letter-spacing:0px;word-spacing:0px;stroke-width:0.264583"
       id="path17900-2" />
    <path
       d="m 64.937083,320.64606 h -5.43964 l -0.31687,2.43013 q -0.0792,0.55772 0.15843,0.83659 0.26406,0.27887 0.76578,0.27887 h 0.76577 q 0.47531,0 0.79218,-0.27887 0.34328,-0.27887 0.4225,-0.83659 l 0.10563,-0.79677 h 2.53498 l -0.15844,1.1553 q -0.10562,0.7171 -0.4225,1.27482 -0.31687,0.55774 -0.81858,0.95612 -0.47531,0.35853 -1.05625,0.55774 -0.58093,0.19919 -1.18827,0.19919 h -1.7692 q -0.60734,0 -1.16187,-0.19919 -0.52812,-0.19921 -0.8978,-0.55774 -0.36969,-0.39838 -0.58094,-0.95612 -0.18484,-0.55772 -0.0792,-1.27482 l 0.8714,-6.53344 q 0.0792,-0.71709 0.4225,-1.27482 0.34328,-0.55773 0.81859,-0.91628 0.47531,-0.39838 1.05624,-0.59757 0.60734,-0.19919 1.21468,-0.19919 h 1.7692 q 0.60734,0 1.13546,0.19919 0.52812,0.19919 0.89781,0.59757 0.39609,0.35855 0.55452,0.91628 0.18485,0.55773 0.10563,1.27482 z m -2.08607,-3.38624 q 0.0792,-0.55773 -0.18485,-0.83659 -0.23765,-0.27887 -0.71296,-0.27887 h -0.76577 q -0.50172,0 -0.845,0.27887 -0.31687,0.27886 -0.39609,0.83659 l -0.15843,1.15531 h 2.90466 z"
       style="font-style:italic;font-size:28.2176px;line-height:1.25;font-family:Dhurjati;-inkscape-font-specification:'Dhurjati Italic';letter-spacing:0px;word-spacing:0px;stroke-width:0.264583"
       id="path17902-9" />
    <path
       d="m 74.839343,320.64606 h -5.43965 l -0.31687,2.43013 q -0.0792,0.55772 0.15844,0.83659 0.26406,0.27887 0.76577,0.27887 h 0.76578 q 0.47531,0 0.79218,-0.27887 0.34328,-0.27887 0.4225,-0.83659 l 0.10562,-0.79677 h 2.53498 l -0.15844,1.1553 q -0.10562,0.7171 -0.42249,1.27482 -0.31688,0.55774 -0.81859,0.95612 -0.47531,0.35853 -1.05624,0.55774 -0.58093,0.19919 -1.18827,0.19919 h -1.76921 q -0.60734,0 -1.16186,-0.19919 -0.52812,-0.19921 -0.89781,-0.55774 -0.36968,-0.39838 -0.58093,-0.95612 -0.18484,-0.55772 -0.0792,-1.27482 l 0.8714,-6.53344 q 0.0792,-0.71709 0.42249,-1.27482 0.34328,-0.55773 0.81859,-0.91628 0.47531,-0.39838 1.05624,-0.59757 0.60734,-0.19919 1.21468,-0.19919 h 1.76921 q 0.60733,0 1.13546,0.19919 0.52812,0.19919 0.8978,0.59757 0.39609,0.35855 0.55453,0.91628 0.18484,0.55773 0.10562,1.27482 z m -2.08608,-3.38624 q 0.0792,-0.55773 -0.18484,-0.83659 -0.23765,-0.27887 -0.71296,-0.27887 h -0.76578 q -0.50171,0 -0.84499,0.27887 -0.31688,0.27886 -0.39609,0.83659 l -0.15844,1.15531 h 2.90467 z"
       style="font-style:italic;font-size:28.2176px;line-height:1.25;font-family:Dhurjati;-inkscape-font-specification:'Dhurjati Italic';letter-spacing:0px;word-spacing:0px;stroke-width:0.264583"
       id="path17904-1" />
    <path
       d="m 86.009063,318.33545 q -0.60734,0 -1.16186,-0.15935 -0.55453,-0.19919 -0.92421,-0.55773 -0.36969,-0.39838 -0.55454,-0.95612 -0.18484,-0.55774 -0.10562,-1.27482 l 0.36968,-2.66915 q 0.0792,-0.71708 0.42251,-1.27482 0.34327,-0.55772 0.81858,-0.91627 0.47531,-0.39838 1.05624,-0.59757 0.60734,-0.19919 1.21468,-0.19919 h 2.05967 q 0.63375,0 1.16187,0.19919 0.52812,0.19919 0.8978,0.59757 0.39609,0.35855 0.55453,0.91627 0.18484,0.55774 0.10562,1.27482 l -0.21125,1.63337 h -2.53497 l 0.15843,-1.27482 q 0.0792,-0.55774 -0.18484,-0.83661 -0.23765,-0.27887 -0.73937,-0.27887 h -1.05624 q -0.50172,0 -0.845,0.27887 -0.31687,0.27887 -0.39609,0.83661 l -0.26406,1.91222 q -0.0792,0.59757 0.18485,0.87644 0.26406,0.27887 0.76577,0.23902 h 1.55796 q 0.63374,0 1.16186,0.1992 0.52812,0.19919 0.89781,0.59757 0.39609,0.35854 0.55453,0.91628 0.18484,0.55773 0.10562,1.27481 l -0.58093,4.34235 q -0.10563,0.7171 -0.4225,1.27482 -0.31688,0.55774 -0.81859,0.95612 -0.4753,0.35853 -1.05624,0.55774 -0.58093,0.19919 -1.21468,0.19919 h -2.05967 q -0.60733,0 -1.16186,-0.19919 -0.52812,-0.19921 -0.89781,-0.55774 -0.36968,-0.39838 -0.58093,-0.95612 -0.18484,-0.55772 -0.0792,-1.27482 l 0.29047,-2.23092 h 2.53498 l -0.23765,1.87239 q -0.0792,0.55772 0.15843,0.83659 0.26406,0.27887 0.76578,0.27887 h 1.05624 q 0.50172,0 0.81858,-0.27887 0.34329,-0.27887 0.4225,-0.83659 l 0.47531,-3.62527 q 0.0792,-0.55774 -0.18484,-0.8366 -0.23765,-0.27887 -0.73937,-0.27887 z"
       style="font-style:italic;font-size:28.2176px;line-height:1.25;font-family:Dhurjati;-inkscape-font-specification:'Dhurjati Italic';letter-spacing:0px;word-spacing:0px;stroke-width:0.264583"
       id="path17906-2" />
    <path
       d="m 93.983683,313.95327 h 2.53498 l -1.66359,12.46932 h -2.53497 z m 2.95747,-3.3464 -0.29046,2.23092 h -2.53498 l 0.29046,-2.23092 z"
       style="font-style:italic;font-size:28.2176px;line-height:1.25;font-family:Dhurjati;-inkscape-font-specification:'Dhurjati Italic';letter-spacing:0px;word-spacing:0px;stroke-width:0.264583"
       id="path17908-7" />
    <path
       d="m 97.073143,326.42259 2.11249,-15.97508 h 2.534977 l -2.112487,15.97508 z"
       style="font-style:italic;font-size:28.2176px;line-height:1.25;font-family:Dhurjati;-inkscape-font-specification:'Dhurjati Italic';letter-spacing:0px;word-spacing:0px;stroke-width:0.264583"
       id="path17910-0" />
    <path
       d="m 110.35537,320.64606 h -5.43965 l -0.31687,2.43013 q -0.0792,0.55772 0.15844,0.83659 0.26406,0.27887 0.76577,0.27887 h 0.76578 q 0.4753,0 0.79218,-0.27887 0.34327,-0.27887 0.42249,-0.83659 l 0.10563,-0.79677 h 2.53498 l -0.15844,1.1553 q -0.10562,0.7171 -0.42249,1.27482 -0.31688,0.55774 -0.8186,0.95612 -0.4753,0.35853 -1.05624,0.55774 -0.58093,0.19919 -1.18827,0.19919 h -1.7692 q -0.60734,0 -1.16187,-0.19919 -0.52812,-0.19921 -0.8978,-0.55774 -0.36969,-0.39838 -0.58093,-0.95612 -0.18485,-0.55772 -0.0792,-1.27482 l 0.8714,-6.53344 q 0.0792,-0.71709 0.42249,-1.27482 0.34328,-0.55773 0.81859,-0.91628 0.47531,-0.39838 1.05624,-0.59757 0.60734,-0.19919 1.21468,-0.19919 h 1.7692 q 0.60734,0 1.13547,0.19919 0.52812,0.19919 0.8978,0.59757 0.39609,0.35855 0.55453,0.91628 0.18484,0.55773 0.10562,1.27482 z m -2.08608,-3.38624 q 0.0792,-0.55773 -0.18485,-0.83659 -0.23765,-0.27887 -0.71296,-0.27887 h -0.76577 q -0.50172,0 -0.84499,0.27887 -0.31688,0.27886 -0.3961,0.83659 l -0.15844,1.15531 h 2.90467 z"
       style="font-style:italic;font-size:28.2176px;line-height:1.25;font-family:Dhurjati;-inkscape-font-specification:'Dhurjati Italic';letter-spacing:0px;word-spacing:0px;stroke-width:0.264583"
       id="path17912-9" />
    <path
       d="m 114.0522,326.42259 h -2.53498 l 1.66358,-12.46932 h 2.53498 l -0.10563,0.75691 q 0.34329,-0.35853 0.81859,-0.55772 0.50171,-0.19919 1.00343,-0.19919 h 0.92421 q 0.63375,0 1.16187,0.19919 0.52812,0.19919 0.89781,0.59757 0.39609,0.35853 0.55452,0.91627 0.18484,0.51789 0.10563,1.23498 l -1.2675,9.52131 h -2.53497 l 1.21467,-9.12293 q 0.0792,-0.59757 -0.18484,-0.8366 -0.26406,-0.27887 -0.76577,-0.27887 h -0.66015 q -0.29047,0 -0.58094,0.11952 -0.26406,0.11951 -0.50172,0.31871 -0.23764,0.19919 -0.39609,0.47805 -0.15843,0.27886 -0.18484,0.59757 z"
       style="font-style:italic;font-size:28.2176px;line-height:1.25;font-family:Dhurjati;-inkscape-font-specification:'Dhurjati Italic';letter-spacing:0px;word-spacing:0px;stroke-width:0.264583"
       id="path17914-3" />
    <path
       d="m 128.46989,313.95327 -0.31687,2.23092 h -1.61077 l -0.8978,6.892 q -0.0792,0.55772 0.15843,0.83659 0.23766,0.27887 0.73937,0.27887 h 0.66015 l -0.29047,2.23094 h -1.16186 q -0.60734,0 -1.16186,-0.19919 -0.52812,-0.19921 -0.89781,-0.55774 -0.36969,-0.39838 -0.58094,-0.95612 -0.18484,-0.55772 -0.0792,-1.27482 l 0.95061,-7.25053 h -1.53155 l 0.31688,-2.23092 h 1.53155 l 0.36968,-2.82851 h 2.56139 l -0.36969,2.82851 z"
       style="font-style:italic;font-size:28.2176px;line-height:1.25;font-family:Dhurjati;-inkscape-font-specification:'Dhurjati Italic';letter-spacing:0px;word-spacing:0px;stroke-width:0.264583"
       id="path17916-6" />
    <path
       d="m 141.38241,309.73043 q 0.60733,0 1.13546,0.19919 0.52812,0.19919 0.8978,0.59757 0.39609,0.35855 0.55453,0.91627 0.18484,0.55774 0.10562,1.27482 l -1.42592,10.71644 q -0.10562,0.7171 -0.4225,1.27482 -0.31687,0.55774 -0.81858,0.95612 -0.47532,0.35853 -1.05624,0.55774 -0.58094,0.19919 -1.18828,0.19919 h -5.09636 l 2.21811,-16.69216 z m 0.10562,3.3464 q 0.0792,-0.55774 -0.18484,-0.83661 -0.23766,-0.27887 -0.73937,-0.27887 h -2.03326 l -1.63718,12.2303 h 2.03327 q 0.50171,0 0.81858,-0.27887 0.34329,-0.27887 0.4225,-0.83659 z"
       style="font-style:italic;font-size:28.2176px;line-height:1.25;font-family:Dhurjati;-inkscape-font-specification:'Dhurjati Italic';letter-spacing:0px;word-spacing:0px;stroke-width:0.264583"
       id="path17918-0" />
    <path
       d="m 145.7922,313.95327 h 2.53498 l -1.66358,12.46932 h -2.53498 z m 2.95747,-3.3464 -0.29046,2.23092 h -2.53498 l 0.29047,-2.23092 z"
       style="font-style:italic;font-size:28.2176px;line-height:1.25;font-family:Dhurjati;-inkscape-font-specification:'Dhurjati Italic';letter-spacing:0px;word-spacing:0px;stroke-width:0.264583"
       id="path17920-6" />
    <path
       d="m 152.5521,320.72574 q -0.60734,0 -1.16186,-0.15936 -0.55454,-0.19919 -0.92422,-0.55773 -0.36968,-0.39838 -0.55453,-0.95611 -0.18484,-0.55774 -0.10562,-1.27482 l 0.13203,-0.87644 q 0.0792,-0.71709 0.4225,-1.27482 0.34327,-0.55773 0.81859,-0.91628 0.47531,-0.39838 1.05624,-0.59757 0.60734,-0.19919 1.21467,-0.19919 h 2.05968 q 0.63374,0 1.16186,0.19919 0.52812,0.19919 0.89781,0.59757 0.39609,0.35855 0.55452,0.91628 0.18484,0.55773 0.10563,1.27482 l -0.0792,0.55773 h -2.53498 l 0.0264,-0.19919 q 0.0792,-0.55773 -0.18485,-0.83659 -0.23765,-0.27887 -0.73936,-0.27887 h -1.05625 q -0.50171,0 -0.84499,0.27887 -0.31687,0.27886 -0.39609,0.83659 l -0.0264,0.11951 q -0.0792,0.59758 0.18485,0.87644 0.26406,0.27887 0.76577,0.23903 h 1.55795 q 0.63375,0 1.16187,0.19919 0.52812,0.19919 0.89781,0.59758 0.39609,0.35854 0.55452,0.91627 0.18485,0.55773 0.10563,1.27482 l -0.26406,1.95206 q -0.10563,0.7171 -0.4225,1.27482 -0.31687,0.55774 -0.81858,0.95612 -0.47531,0.35853 -1.05624,0.55774 -0.58094,0.19919 -1.21469,0.19919 h -2.05966 q -0.60734,0 -1.16187,-0.19919 -0.52812,-0.19921 -0.89781,-0.55774 -0.36968,-0.39838 -0.58093,-0.95612 -0.18484,-0.55772 -0.0792,-1.27482 l 0.15844,-1.23497 h 2.53497 l -0.10562,0.87644 q -0.0792,0.55772 0.15844,0.83659 0.26406,0.27887 0.76577,0.27887 h 1.05625 q 0.50171,0 0.81858,-0.27887 0.34328,-0.27887 0.4225,-0.83659 l 0.15843,-1.23499 q 0.0792,-0.55773 -0.18483,-0.8366 -0.23766,-0.27886 -0.73938,-0.27886 z"
       style="font-style:italic;font-size:28.2176px;line-height:1.25;font-family:Dhurjati;-inkscape-font-specification:'Dhurjati Italic';letter-spacing:0px;word-spacing:0px;stroke-width:0.264583"
       id="path17922-2" />
    <path
       d="m 160.15702,316.90128 q 0.0792,-0.71709 0.42249,-1.27482 0.34328,-0.55773 0.81859,-0.91628 0.47531,-0.39838 1.05625,-0.59757 0.60733,-0.19919 1.21467,-0.19919 h 1.7692 q 0.60734,0 1.13547,0.19919 0.52812,0.19919 0.8978,0.59757 0.39609,0.35855 0.55453,0.91628 0.18484,0.55773 0.10562,1.27482 l -0.18484,1.27482 h -2.53498 l 0.13203,-0.91628 q 0.0792,-0.55773 -0.18484,-0.83659 -0.23766,-0.27887 -0.71297,-0.27887 h -0.76577 q -0.50171,0 -0.84499,0.27887 -0.31687,0.27886 -0.39609,0.83659 l -0.76578,5.81637 q -0.0792,0.55772 0.15843,0.83659 0.26406,0.27887 0.76578,0.27887 h 0.76578 q 0.47531,0 0.79218,-0.27887 0.34328,-0.27887 0.42249,-0.83659 l 0.10563,-0.87644 h 2.53498 l -0.15844,1.23497 q -0.10562,0.7171 -0.42249,1.27482 -0.31687,0.55774 -0.81859,0.95612 -0.47531,0.35853 -1.05624,0.55774 -0.58094,0.19919 -1.18827,0.19919 h -1.76921 q -0.60734,0 -1.16187,-0.19919 -0.52812,-0.19921 -0.8978,-0.55774 -0.36968,-0.39838 -0.58093,-0.95612 -0.18484,-0.55772 -0.0792,-1.27482 z"
       style="font-style:italic;font-size:28.2176px;line-height:1.25;font-family:Dhurjati;-inkscape-font-specification:'Dhurjati Italic';letter-spacing:0px;word-spacing:0px;stroke-width:0.264583"
       id="path17924-6" />
    <path
       d="m 170.03284,316.90128 q 0.0792,-0.71709 0.4225,-1.27482 0.34327,-0.55773 0.81859,-0.91628 0.4753,-0.39838 1.05624,-0.59757 0.60733,-0.19919 1.21467,-0.19919 h 1.76921 q 0.60733,0 1.13545,0.19919 0.52813,0.19919 0.89781,0.59757 0.39609,0.35855 0.55453,0.91628 0.18484,0.55773 0.10562,1.27482 l -0.8714,6.53344 q -0.10562,0.7171 -0.42249,1.27482 -0.31687,0.55774 -0.81859,0.95612 -0.47531,0.35853 -1.05624,0.55774 -0.58093,0.19919 -1.18827,0.19919 h -1.76921 q -0.60733,0 -1.16186,-0.19919 -0.52813,-0.19921 -0.8978,-0.55774 -0.36969,-0.39838 -0.58094,-0.95612 -0.18484,-0.55772 -0.0792,-1.27482 z m 5.38683,0.35854 q 0.0792,-0.55773 -0.18484,-0.83659 -0.23766,-0.27887 -0.71296,-0.27887 h -0.76578 q -0.50171,0 -0.84499,0.27887 -0.31687,0.27886 -0.39609,0.83659 l -0.76578,5.81637 q -0.0792,0.55772 0.15844,0.83659 0.26406,0.27887 0.76577,0.27887 h 0.76578 q 0.47531,0 0.79218,-0.27887 0.34328,-0.27887 0.4225,-0.83659 z"
       style="font-style:italic;font-size:28.2176px;line-height:1.25;font-family:Dhurjati;-inkscape-font-specification:'Dhurjati Italic';letter-spacing:0px;word-spacing:0px;stroke-width:0.264583"
       id="path17926-1" />
    <path
       d="m 184.58236,309.04362 h -2.56266 l -0.7688,5.02698 -0.41002,7.39683 h 1.14465 l 1.82803,-7.39683 z m -2.11847,13.88403 h -2.56265 l -0.52962,3.49494 h 2.56266 z"
       style="font-style:italic;font-weight:600;font-size:20.2229px;line-height:1.25;font-family:FreeSans;-inkscape-font-specification:'FreeSans Semi-Bold Italic';letter-spacing:0px;word-spacing:0px;stroke-width:0.264583"
       id="path17961-8" />
    <path
       id="path17898-6-7"
       style="font-style:italic;font-size:28.2176px;line-height:1.25;font-family:Dhurjati;-inkscape-font-specification:'Dhurjati Italic';letter-spacing:0px;word-spacing:0px;fill:#ff00ff;stroke-width:0.264583"
       d="m 41.751954,325.89257 c 0.491912,-0.14803 1.561195,0.36289 1.517404,-0.39653 0.32673,-2.45695 0.649254,-4.91447 0.97869,-7.37105 1.319661,0 2.639323,0 3.958984,0 0.07379,-0.6158 0.404607,-1.45737 -0.547656,-1.17188 -1.08763,1e-5 -2.17526,0 -3.262891,0 0.249811,-1.84051 0.503147,-3.68056 0.75,-5.52148 1.680339,0 3.360677,0 5.041016,0 0.07379,-0.6158 0.404606,-1.45737 -0.547656,-1.17187 -1.936589,0 -3.873177,0 -5.809766,0 -0.692708,5.21093 -1.385417,10.42187 -2.078125,15.63281 z" />
    <path
       id="path17900-2-9"
       style="font-style:italic;font-size:28.2176px;line-height:1.25;font-family:Dhurjati;-inkscape-font-specification:'Dhurjati Italic';letter-spacing:0px;word-spacing:0px;fill:#ff00ff;stroke-width:0.264583"
       d="m 50.728517,325.89257 c 0.492002,-0.14802 1.560973,0.36286 1.517646,-0.3965 0.389918,-2.70273 0.664048,-5.42762 1.122979,-8.11717 0.32709,-1.06126 1.415362,-1.81884 2.527343,-1.72461 0.02076,-0.48962 0.460993,-1.50704 -0.392578,-1.04102 -0.912213,0.34471 -1.388662,1.28331 -2.074218,1.92188 0.09495,-0.68426 0.19126,-1.36833 0.285156,-2.05274 -0.491336,0.14809 -1.559694,-0.36301 -1.515827,0.39648 -0.490167,3.67123 -0.980334,7.34245 -1.470501,11.01368 z" />
    <path
       id="path17902-9-2"
       style="font-style:italic;font-size:28.2176px;line-height:1.25;font-family:Dhurjati;-inkscape-font-specification:'Dhurjati Italic';letter-spacing:0px;word-spacing:0px;fill:#ff00ff;stroke-width:0.264583"
       d="m 60.710939,314.45507 c -1.501864,0.08 -2.78692,1.4106 -2.775507,2.92384 -0.264273,2.23497 -0.660765,4.46038 -0.845587,6.70116 0.04747,1.26884 1.395426,1.95997 2.54414,1.8125 1.321717,0.0474 2.910943,0.0996 3.798273,-1.08107 0.477048,-0.55436 0.612395,-1.29793 0.688837,-2.00292 -0.473062,0.14711 -1.502179,-0.34066 -1.509766,0.33789 -0.07539,1.05433 -1.137313,1.74031 -2.140234,1.57422 -0.870574,0.14538 -1.910142,-0.39177 -1.842188,-1.3789 0.09836,-1.0785 0.275201,-2.14917 0.404297,-3.22461 1.813151,0 3.626302,0 5.439453,0 0.113889,-1.36716 0.517996,-2.72818 0.416016,-4.10157 -0.19367,-1.22472 -1.563472,-1.71767 -2.664063,-1.57226 -0.504476,0.006 -1.009633,-0.0135 -1.513671,0.0117 z m 0.476562,1.16015 c 0.837353,-0.0934 1.974804,0.038 2.175781,1.03907 0.09987,0.76732 -0.14689,1.52805 -0.208984,2.29101 -1.32487,0 -2.64974,0 -3.974609,0 0.243948,-1.05941 -0.001,-2.53689 1.136718,-3.13086 0.270438,-0.13752 0.569347,-0.19555 0.871094,-0.19922 z" />
    <path
       id="path17904-1-0"
       style="font-style:italic;font-size:28.2176px;line-height:1.25;font-family:Dhurjati;-inkscape-font-specification:'Dhurjati Italic';letter-spacing:0px;word-spacing:0px;fill:#ff00ff;stroke-width:0.264583"
       d="m 70.613282,314.45507 c -1.501946,0.08 -2.786749,1.41062 -2.775638,2.92382 -0.263578,2.23504 -0.665242,4.45987 -0.845455,6.70118 0.04564,1.26977 1.395748,1.95972 2.54414,1.8125 1.321648,0.0473 2.910984,0.0996 3.798273,-1.08107 0.477411,-0.55423 0.61323,-1.29757 0.686883,-2.00292 -0.472275,0.14726 -1.501117,-0.34094 -1.507812,0.33789 -0.07539,1.05433 -1.137313,1.74031 -2.140235,1.57422 -0.870574,0.14538 -1.910141,-0.39177 -1.842187,-1.3789 0.09836,-1.0785 0.2752,-2.14917 0.404297,-3.22461 1.813151,0 3.626302,0 5.439453,0 0.114475,-1.36715 0.517094,-2.7279 0.416016,-4.10157 -0.19367,-1.22472 -1.563473,-1.71767 -2.664063,-1.57226 -0.504476,0.006 -1.009634,-0.0135 -1.513672,0.0117 z m 0.476563,1.16015 c 0.837353,-0.0934 1.974804,0.038 2.175781,1.03907 0.09987,0.76732 -0.14689,1.52805 -0.208984,2.29101 -1.32487,0 -2.64974,0 -3.97461,0 0.242811,-1.05958 -0.0021,-2.53746 1.136719,-3.13086 0.270438,-0.13752 0.569347,-0.19555 0.871094,-0.19922 z" />
    <path
       id="path17906-2-2"
       style="font-style:italic;font-size:28.2176px;line-height:1.25;font-family:Dhurjati;-inkscape-font-specification:'Dhurjati Italic';letter-spacing:0px;word-spacing:0px;fill:#ff00ff;stroke-width:0.264583"
       d="m 86.88086,310.27147 c -1.50778,0.0774 -2.783087,1.41474 -2.781446,2.92747 -0.06521,1.30542 -0.776108,2.8261 0.144396,3.97935 1.089928,1.13343 2.789251,0.28105 4.089153,0.80124 1.038208,0.52959 0.635475,1.82355 0.528203,2.72975 -0.24424,1.09988 -0.0786,2.34013 -0.667806,3.33368 -0.679849,0.91006 -1.955216,0.70044 -2.938702,0.61985 -0.948814,-0.16614 -1.151039,-1.25491 -0.934765,-2.04987 0.323574,-0.8395 -0.104323,-1.01686 -0.888251,-0.88053 -0.806067,-0.20853 -0.452623,0.90313 -0.649429,1.38829 -0.293888,1.03501 0.123369,2.33948 1.254587,2.63195 1.135914,0.25854 2.333867,0.13258 3.490545,0.0969 1.415092,-0.18185 2.483438,-1.4691 2.498259,-2.88086 0.151828,-1.54024 0.523051,-3.07169 0.523572,-4.61864 -0.100351,-1.26286 -1.476512,-1.87315 -2.609331,-1.71534 -0.861455,-0.0326 -2.088004,0.2474 -2.514063,-0.75586 -0.304466,-0.98087 0.12544,-2.01379 0.192329,-3.00805 0.106584,-1.03016 1.185243,-1.58337 2.137359,-1.43922 0.833117,-0.10732 1.961434,0.10529 2.1,1.10156 0.185359,0.39935 -0.313519,1.21551 0.121875,1.28907 0.560388,-0.0712 1.511243,0.30214 1.346099,-0.595 0.263747,-1.01958 0.04286,-2.3281 -1.043989,-2.75948 -1.069749,-0.38373 -2.281917,-0.15056 -3.398595,-0.19631 z" />
    <path
       id="path17908-7-3"
       style="font-style:italic;font-size:28.2176px;line-height:1.25;font-family:Dhurjati;-inkscape-font-specification:'Dhurjati Italic';letter-spacing:0px;word-spacing:0px;fill:#ff00ff;stroke-width:0.264583"
       d="m 94.718751,312.30858 c 0.492255,-0.148 1.563263,0.36285 1.518363,-0.39666 0.384357,-0.8886 -0.308997,-0.83053 -0.999222,-0.77521 -0.655823,-0.1954 -0.34644,0.79611 -0.519141,1.17187 z m -1.792969,13.58399 c 0.492052,-0.14801 1.560851,0.36285 1.517781,-0.39648 0.490167,-3.67123 0.980334,-7.34245 1.4705,-11.01368 -0.492051,0.14801 -1.56085,-0.36285 -1.51778,0.39648 -0.490167,3.67123 -0.980334,7.34245 -1.470501,11.01368 z" />
    <path
       id="path17910-0-7"
       style="font-style:italic;font-size:28.2176px;line-height:1.25;font-family:Dhurjati;-inkscape-font-specification:'Dhurjati Italic';letter-spacing:0px;word-spacing:0px;fill:#ff00ff;stroke-width:0.264583"
       d="m 97.677735,325.89257 c 0.491868,-0.14804 1.561302,0.36291 1.517288,-0.39655 0.640071,-4.83982 1.280137,-9.67964 1.920207,-14.51947 -0.49186,0.14804 -1.561296,-0.3629 -1.517282,0.39655 -0.640071,4.83982 -1.280142,9.67965 -1.920213,14.51947 z" />
    <path
       id="path17912-9-5"
       style="font-style:italic;font-size:28.2176px;line-height:1.25;font-family:Dhurjati;-inkscape-font-specification:'Dhurjati Italic';letter-spacing:0px;word-spacing:0px;fill:#ff00ff;stroke-width:0.264583"
       d="m 106.12891,314.45507 c -1.51005,0.0637 -2.79751,1.45839 -2.77358,2.91211 -0.26505,2.23887 -0.66192,4.46821 -0.84752,6.71289 0.0475,1.26884 1.39543,1.95997 2.54414,1.8125 1.32175,0.0476 2.91098,0.0998 3.79828,-1.08107 0.47538,-0.55473 0.61233,-1.29785 0.68883,-2.00292 -0.47306,0.14711 -1.50218,-0.34066 -1.50976,0.33789 -0.0754,1.05433 -1.13732,1.74031 -2.14024,1.57422 -0.8714,0.1457 -1.90797,-0.39184 -1.84218,-1.3789 0.10297,-1.07814 0.27373,-2.14932 0.40429,-3.22461 1.81315,0 3.6263,0 5.43945,0 0.11569,-1.36332 0.51149,-2.72008 0.41993,-4.08985 -0.19084,-1.23224 -1.56153,-1.72973 -2.66797,-1.58398 -0.50448,0.006 -1.00964,-0.0135 -1.51367,0.0117 z m 0.47656,1.16015 c 0.83735,-0.0934 1.9748,0.038 2.17578,1.03907 0.0999,0.76732 -0.14689,1.52805 -0.20898,2.29101 -1.32422,0 -2.64844,0 -3.97266,0 0.24301,-1.06054 -0.002,-2.53554 1.13477,-3.13281 0.27106,-0.13527 0.56969,-0.19396 0.87109,-0.19727 z" />
    <path
       id="path17914-3-9"
       style="font-style:italic;font-size:28.2176px;line-height:1.25;font-family:Dhurjati;-inkscape-font-specification:'Dhurjati Italic';letter-spacing:0px;word-spacing:0px;fill:#ff00ff;stroke-width:0.264583"
       d="m 112.12305,325.89257 c 0.49201,-0.14802 1.56093,0.36286 1.51768,-0.3965 0.39107,-2.76139 0.69417,-5.54477 1.13661,-8.29296 0.38519,-1.19233 1.7258,-1.74118 2.89856,-1.53945 0.93034,-0.0224 1.57173,0.937 1.32457,1.8046 -0.37385,2.8081 -0.74771,5.6162 -1.12156,8.42431 0.492,-0.14802 1.56096,0.36286 1.51765,-0.3965 0.37886,-3.01462 0.84743,-6.02249 1.17026,-9.04133 0.0631,-1.27628 -1.25623,-2.12264 -2.43088,-1.97233 -0.9151,-0.11025 -1.86941,0.13832 -2.45733,0.88852 -0.5196,0.5439 -1.00462,1.02119 -0.68891,-0.0441 0.34738,-0.83924 -0.12689,-0.96463 -0.88228,-0.84443 -0.79932,-0.2045 -0.44613,0.90762 -0.64621,1.38769 -0.44606,3.34082 -0.89211,6.68164 -1.33816,10.02247 z" />
    <path
       id="path17916-6-2"
       style="font-style:italic;font-size:28.2176px;line-height:1.25;font-family:Dhurjati;-inkscape-font-specification:'Dhurjati Italic';letter-spacing:0px;word-spacing:0px;fill:#ff00ff;stroke-width:0.264583"
       d="m 124.82227,314.02147 c 0.10366,0.81344 -0.9292,0.33131 -1.4254,0.46094 -0.28917,0.10931 -0.62907,1.50581 0.16172,1.17188 0.52107,0.019 1.32662,-0.21172 0.94727,0.59765 -0.30883,2.61059 -0.75051,5.2118 -0.97852,7.82813 0.0456,1.26977 1.39575,1.95972 2.54414,1.8125 0.60648,0.21001 0.50733,-0.9723 0.43243,-1.17383 -0.96284,0.0736 -1.62352,-0.92366 -1.37184,-1.8101 0.31549,-2.4181 0.6298,-4.83635 0.94605,-7.25435 0.50157,-0.11941 1.42698,0.25011 1.64362,-0.19798 0.25955,-0.76937 0.10422,-1.17908 -0.76041,-0.9739 -0.79775,0.22966 -0.73909,-0.29227 -0.58853,-0.89513 0.0841,-0.64433 0.16813,-1.28866 0.2522,-1.93299 -0.50153,0.14725 -1.57817,-0.36098 -1.54422,0.3966 -0.0862,0.65686 -0.17234,1.31372 -0.25851,1.97058 z" />
    <path
       id="path17918-0-2"
       style="font-style:italic;font-size:28.2176px;line-height:1.25;font-family:Dhurjati;-inkscape-font-specification:'Dhurjati Italic';letter-spacing:0px;word-spacing:0px;fill:#ff00ff;stroke-width:0.264583"
       d="m 134.67383,325.89257 c 1.74509,-0.0563 3.50911,0.11584 5.24219,-0.0918 1.35739,-0.27483 2.26319,-1.5804 2.27492,-2.93118 0.44723,-3.53433 0.98537,-7.06176 1.37606,-10.6004 0.0817,-1.27687 -1.22101,-2.15893 -2.40567,-2.00943 -1.47044,0 -2.94089,0 -4.41133,0 -0.69206,5.21093 -1.38411,10.42187 -2.07617,15.63281 z m 3.85742,-14.46094 c 0.98529,0.108 2.10546,-0.26142 2.99023,0.29297 0.9412,0.78379 0.29505,2.09191 0.26967,3.10529 -0.40791,2.89739 -0.71722,5.81345 -1.18568,8.6994 -0.26415,0.98621 -1.3675,1.31832 -2.27969,1.1914 -0.67956,0 -1.35911,0 -2.03867,0 0.59357,-4.42971 1.18562,-8.85963 1.78125,-13.28906 0.1543,0 0.30859,0 0.46289,0 z" />
    <path
       id="path17920-6-8"
       style="font-style:italic;font-size:28.2176px;line-height:1.25;font-family:Dhurjati;-inkscape-font-specification:'Dhurjati Italic';letter-spacing:0px;word-spacing:0px;fill:#ff00ff;stroke-width:0.264583"
       d="m 146.52734,312.30858 c 0.49226,-0.148 1.56327,0.36285 1.51837,-0.39666 0.38435,-0.8886 -0.309,-0.83053 -0.99923,-0.77521 -0.65582,-0.1954 -0.34644,0.79611 -0.51914,1.17187 z m -1.79296,13.58399 c 0.49205,-0.14801 1.56085,0.36285 1.51778,-0.39648 0.49016,-3.67123 0.98033,-7.34245 1.4705,-11.01368 -0.49206,0.14801 -1.56085,-0.36285 -1.51778,0.39648 -0.49017,3.67123 -0.98034,7.34245 -1.4705,11.01368 z" />
    <path
       id="path17922-2-9"
       style="font-style:italic;font-size:28.2176px;line-height:1.25;font-family:Dhurjati;-inkscape-font-specification:'Dhurjati Italic';letter-spacing:0px;word-spacing:0px;fill:#ff00ff;stroke-width:0.264583"
       d="m 153.18555,314.45507 c -1.5088,0.0773 -2.77806,1.4162 -2.78515,2.92693 -0.31917,1.09282 0.13411,2.55667 1.39843,2.74104 1.07145,0.26246 2.2934,-0.23364 3.26953,0.36523 0.8813,0.7198 0.3709,1.94816 0.28331,2.89109 -0.17598,1.01776 -1.27779,1.48583 -2.2169,1.34133 -0.84206,0.12257 -1.98977,-0.1917 -2.01641,-1.21096 0.0595,-0.57886 0.0684,-0.96454 -0.6543,-0.78122 -0.79052,-0.23838 -0.8974,0.3155 -0.89216,0.97244 -0.20243,1.26838 1.02554,2.29774 2.23669,2.19162 1.4379,-0.0401 3.1558,0.28726 4.25456,-0.89659 0.98054,-1.02465 0.83414,-2.55781 1.05208,-3.85732 0.12584,-1.23595 -1.05118,-2.21495 -2.23632,-2.11523 -0.96386,-0.0998 -2.30434,0.35957 -2.88672,-0.6875 -0.45309,-1.08747 0.17824,-2.68713 1.48841,-2.70841 0.90764,-0.018 2.24143,-0.22676 2.61749,0.86899 -0.0402,0.73363 0.80456,0.33549 1.2855,0.43317 0.61599,0.10477 0.28527,-0.8655 0.20248,-1.23109 -0.39498,-1.13548 -1.74274,-1.35771 -2.79584,-1.25524 -0.53476,0.007 -1.07038,-0.0141 -1.60468,0.0117 z" />
    <path
       id="path17924-6-7"
       style="font-style:italic;font-size:28.2176px;line-height:1.25;font-family:Dhurjati;-inkscape-font-specification:'Dhurjati Italic';letter-spacing:0px;word-spacing:0px;fill:#ff00ff;stroke-width:0.264583"
       d="m 163.4043,314.45507 c -1.50873,0.0643 -2.79866,1.45836 -2.77553,2.91211 -0.26531,2.2369 -0.66037,4.4644 -0.84752,6.70703 0.0456,1.27222 1.39442,1.96644 2.54609,1.81836 1.32201,0.0484 2.90949,0.0972 3.79828,-1.08107 0.49432,-0.57597 0.61916,-1.35239 0.69079,-2.08299 -0.48995,0.14827 -1.56603,-0.3635 -1.51213,0.39719 -0.0604,1.0638 -1.13166,1.76412 -2.14178,1.59499 -0.86997,0.1448 -1.90966,-0.39131 -1.84023,-1.3789 0.26631,-2.17723 0.52156,-4.36383 0.875,-6.52735 0.25212,-1.05515 1.44723,-1.32002 2.38359,-1.19922 0.97991,-0.1115 1.74303,0.89375 1.47132,1.81774 -0.0225,0.42243 1.20867,0.21355 1.45048,0.11455 0.26877,-1.02111 0.15405,-2.34833 -0.91868,-2.85221 -0.98591,-0.44108 -2.13325,-0.19398 -3.17968,-0.24023 z" />
    <path
       id="path17926-1-3"
       style="font-style:italic;font-size:28.2176px;line-height:1.25;font-family:Dhurjati;-inkscape-font-specification:'Dhurjati Italic';letter-spacing:0px;word-spacing:0px;fill:#ff00ff;stroke-width:0.264583"
       d="m 173.2793,314.45507 c -1.51005,0.0637 -2.79751,1.45839 -2.77358,2.91211 -0.26505,2.23887 -0.66192,4.46821 -0.84752,6.71289 0.0475,1.26884 1.39543,1.95997 2.54414,1.8125 1.32175,0.0476 2.91098,0.0998 3.79828,-1.08107 0.8851,-1.17279 0.66981,-2.75295 0.96745,-4.1226 0.14809,-1.51072 0.51355,-3.01286 0.51068,-4.53019 -0.099,-1.24965 -1.46045,-1.8691 -2.58578,-1.71536 -0.53777,0.007 -1.07637,-0.014 -1.61367,0.0117 z m 0.47656,1.16015 c 0.83735,-0.0934 1.9748,0.038 2.17578,1.03907 0.0531,1.38615 -0.32664,2.76224 -0.4431,4.14389 -0.2429,1.08667 -0.0684,2.3206 -0.68581,3.2897 -0.6708,0.81381 -1.88441,0.72603 -2.80468,0.50781 -1.03642,-0.38421 -0.80656,-1.63247 -0.65599,-2.48019 0.27585,-1.79385 0.39818,-3.62071 0.76692,-5.39482 0.21114,-0.70748 0.93318,-1.11987 1.64688,-1.10546 z" />
    <path
       id="path17961-8-6"
       style="font-style:italic;font-weight:600;font-size:20.2229px;line-height:1.25;font-family:FreeSans;-inkscape-font-specification:'FreeSans Semi-Bold Italic';letter-spacing:0px;word-spacing:0px;fill:#ff00ff;stroke-width:0.264583"
       d="m 181.77734,314.11913 c -0.125,2.27279 -0.25,4.54557 -0.375,6.81836 0.44375,-0.22937 0.3476,-1.14839 0.57799,-1.6503 0.63148,-2.65039 1.41933,-5.2696 1.72114,-7.98571 0.0118,-0.53978 0.3451,-1.35575 0.16337,-1.72922 -0.52528,0.12209 -1.56417,-0.3542 -1.46602,0.49422 -0.20716,1.35088 -0.41432,2.70177 -0.62148,4.05265 z m -1.79101,11.77344 c 0.50458,-0.14682 1.57069,0.35991 1.55244,-0.39544 0.10361,-0.68003 0.20723,-1.36007 0.31084,-2.04011 -0.50516,0.1468 -1.57217,-0.35984 -1.55408,0.39548 -0.10307,0.68003 -0.20614,1.36005 -0.3092,2.04007 z" />
  </g>
</svg>
